<svg xmlns="http://www.w3.org/2000/svg" viewBox="0 0 720 520" role="img" aria-label="Breadboard drawing of the Velostat LED circuit. A power module at the left end of the breadboard powers the + and – rails with 5V. A black wire goes from the – rail to the LED's short leg. The LED's long leg shares a row with one leg of a 220 ohm resistor; the resistor's other leg is in its own row. A blue wire from that row and a red wire from the + rail clip onto the two copper tails of the Velostat sensor." font-family="Inter, Helvetica, Arial, sans-serif">
<rect width="100%" height="100%" fill="#fff"/>
<rect x="10" y="10" width="490" height="400" rx="6" fill="#e4e4e4" stroke="#c8c8c8"/>
<rect x="10" y="200" width="490" height="20" fill="#d2d2d2"/>
<rect x="191" y="229" width="18" height="102" rx="4" fill="#c9d0dc"/>
<rect x="211" y="229" width="18" height="102" rx="4" fill="#f8c9c4"/>
<rect x="291" y="229" width="18" height="102" rx="4" fill="#cfe0fb"/>
<line x1="20" x2="490" y1="18" y2="18" stroke="#d32f2f" stroke-width="2"/>
<rect x="36" y="26" width="8" height="8" rx="1.5" fill="#3a3a3a"/>
<rect x="56" y="26" width="8" height="8" rx="1.5" fill="#3a3a3a"/>
<rect x="76" y="26" width="8" height="8" rx="1.5" fill="#3a3a3a"/>
<rect x="96" y="26" width="8" height="8" rx="1.5" fill="#3a3a3a"/>
<rect x="116" y="26" width="8" height="8" rx="1.5" fill="#3a3a3a"/>
<rect x="156" y="26" width="8" height="8" rx="1.5" fill="#3a3a3a"/>
<rect x="176" y="26" width="8" height="8" rx="1.5" fill="#3a3a3a"/>
<rect x="196" y="26" width="8" height="8" rx="1.5" fill="#3a3a3a"/>
<rect x="216" y="26" width="8" height="8" rx="1.5" fill="#3a3a3a"/>
<rect x="236" y="26" width="8" height="8" rx="1.5" fill="#3a3a3a"/>
<rect x="276" y="26" width="8" height="8" rx="1.5" fill="#3a3a3a"/>
<rect x="296" y="26" width="8" height="8" rx="1.5" fill="#3a3a3a"/>
<rect x="316" y="26" width="8" height="8" rx="1.5" fill="#3a3a3a"/>
<rect x="336" y="26" width="8" height="8" rx="1.5" fill="#3a3a3a"/>
<rect x="356" y="26" width="8" height="8" rx="1.5" fill="#3a3a3a"/>
<rect x="396" y="26" width="8" height="8" rx="1.5" fill="#3a3a3a"/>
<rect x="416" y="26" width="8" height="8" rx="1.5" fill="#3a3a3a"/>
<rect x="436" y="26" width="8" height="8" rx="1.5" fill="#3a3a3a"/>
<rect x="456" y="26" width="8" height="8" rx="1.5" fill="#3a3a3a"/>
<text x="486" y="35" font-size="15" font-weight="700" fill="#d32f2f" text-anchor="middle">+</text>
<line x1="20" x2="490" y1="62" y2="62" stroke="#2f6fd6" stroke-width="2"/>
<rect x="36" y="46" width="8" height="8" rx="1.5" fill="#3a3a3a"/>
<rect x="56" y="46" width="8" height="8" rx="1.5" fill="#3a3a3a"/>
<rect x="76" y="46" width="8" height="8" rx="1.5" fill="#3a3a3a"/>
<rect x="96" y="46" width="8" height="8" rx="1.5" fill="#3a3a3a"/>
<rect x="116" y="46" width="8" height="8" rx="1.5" fill="#3a3a3a"/>
<rect x="156" y="46" width="8" height="8" rx="1.5" fill="#3a3a3a"/>
<rect x="176" y="46" width="8" height="8" rx="1.5" fill="#3a3a3a"/>
<rect x="196" y="46" width="8" height="8" rx="1.5" fill="#3a3a3a"/>
<rect x="216" y="46" width="8" height="8" rx="1.5" fill="#3a3a3a"/>
<rect x="236" y="46" width="8" height="8" rx="1.5" fill="#3a3a3a"/>
<rect x="276" y="46" width="8" height="8" rx="1.5" fill="#3a3a3a"/>
<rect x="296" y="46" width="8" height="8" rx="1.5" fill="#3a3a3a"/>
<rect x="316" y="46" width="8" height="8" rx="1.5" fill="#3a3a3a"/>
<rect x="336" y="46" width="8" height="8" rx="1.5" fill="#3a3a3a"/>
<rect x="356" y="46" width="8" height="8" rx="1.5" fill="#3a3a3a"/>
<rect x="396" y="46" width="8" height="8" rx="1.5" fill="#3a3a3a"/>
<rect x="416" y="46" width="8" height="8" rx="1.5" fill="#3a3a3a"/>
<rect x="436" y="46" width="8" height="8" rx="1.5" fill="#3a3a3a"/>
<rect x="456" y="46" width="8" height="8" rx="1.5" fill="#3a3a3a"/>
<text x="486" y="55" font-size="15" font-weight="700" fill="#2f6fd6" text-anchor="middle">–</text>
<line x1="20" x2="490" y1="358" y2="358" stroke="#2f6fd6" stroke-width="2"/>
<rect x="36" y="366" width="8" height="8" rx="1.5" fill="#3a3a3a"/>
<rect x="56" y="366" width="8" height="8" rx="1.5" fill="#3a3a3a"/>
<rect x="76" y="366" width="8" height="8" rx="1.5" fill="#3a3a3a"/>
<rect x="96" y="366" width="8" height="8" rx="1.5" fill="#3a3a3a"/>
<rect x="116" y="366" width="8" height="8" rx="1.5" fill="#3a3a3a"/>
<rect x="156" y="366" width="8" height="8" rx="1.5" fill="#3a3a3a"/>
<rect x="176" y="366" width="8" height="8" rx="1.5" fill="#3a3a3a"/>
<rect x="196" y="366" width="8" height="8" rx="1.5" fill="#3a3a3a"/>
<rect x="216" y="366" width="8" height="8" rx="1.5" fill="#3a3a3a"/>
<rect x="236" y="366" width="8" height="8" rx="1.5" fill="#3a3a3a"/>
<rect x="276" y="366" width="8" height="8" rx="1.5" fill="#3a3a3a"/>
<rect x="296" y="366" width="8" height="8" rx="1.5" fill="#3a3a3a"/>
<rect x="316" y="366" width="8" height="8" rx="1.5" fill="#3a3a3a"/>
<rect x="336" y="366" width="8" height="8" rx="1.5" fill="#3a3a3a"/>
<rect x="356" y="366" width="8" height="8" rx="1.5" fill="#3a3a3a"/>
<rect x="396" y="366" width="8" height="8" rx="1.5" fill="#3a3a3a"/>
<rect x="416" y="366" width="8" height="8" rx="1.5" fill="#3a3a3a"/>
<rect x="436" y="366" width="8" height="8" rx="1.5" fill="#3a3a3a"/>
<rect x="456" y="366" width="8" height="8" rx="1.5" fill="#3a3a3a"/>
<text x="486" y="375" font-size="15" font-weight="700" fill="#2f6fd6" text-anchor="middle">–</text>
<line x1="20" x2="490" y1="402" y2="402" stroke="#d32f2f" stroke-width="2"/>
<rect x="36" y="386" width="8" height="8" rx="1.5" fill="#3a3a3a"/>
<rect x="56" y="386" width="8" height="8" rx="1.5" fill="#3a3a3a"/>
<rect x="76" y="386" width="8" height="8" rx="1.5" fill="#3a3a3a"/>
<rect x="96" y="386" width="8" height="8" rx="1.5" fill="#3a3a3a"/>
<rect x="116" y="386" width="8" height="8" rx="1.5" fill="#3a3a3a"/>
<rect x="156" y="386" width="8" height="8" rx="1.5" fill="#3a3a3a"/>
<rect x="176" y="386" width="8" height="8" rx="1.5" fill="#3a3a3a"/>
<rect x="196" y="386" width="8" height="8" rx="1.5" fill="#3a3a3a"/>
<rect x="216" y="386" width="8" height="8" rx="1.5" fill="#3a3a3a"/>
<rect x="236" y="386" width="8" height="8" rx="1.5" fill="#3a3a3a"/>
<rect x="276" y="386" width="8" height="8" rx="1.5" fill="#3a3a3a"/>
<rect x="296" y="386" width="8" height="8" rx="1.5" fill="#3a3a3a"/>
<rect x="316" y="386" width="8" height="8" rx="1.5" fill="#3a3a3a"/>
<rect x="336" y="386" width="8" height="8" rx="1.5" fill="#3a3a3a"/>
<rect x="356" y="386" width="8" height="8" rx="1.5" fill="#3a3a3a"/>
<rect x="396" y="386" width="8" height="8" rx="1.5" fill="#3a3a3a"/>
<rect x="416" y="386" width="8" height="8" rx="1.5" fill="#3a3a3a"/>
<rect x="436" y="386" width="8" height="8" rx="1.5" fill="#3a3a3a"/>
<rect x="456" y="386" width="8" height="8" rx="1.5" fill="#3a3a3a"/>
<text x="486" y="395" font-size="15" font-weight="700" fill="#d32f2f" text-anchor="middle">+</text>
<rect x="36" y="96" width="8" height="8" rx="1.5" fill="#3a3a3a"/>
<rect x="56" y="96" width="8" height="8" rx="1.5" fill="#3a3a3a"/>
<rect x="76" y="96" width="8" height="8" rx="1.5" fill="#3a3a3a"/>
<rect x="96" y="96" width="8" height="8" rx="1.5" fill="#3a3a3a"/>
<rect x="116" y="96" width="8" height="8" rx="1.5" fill="#3a3a3a"/>
<rect x="136" y="96" width="8" height="8" rx="1.5" fill="#3a3a3a"/>
<rect x="156" y="96" width="8" height="8" rx="1.5" fill="#3a3a3a"/>
<rect x="176" y="96" width="8" height="8" rx="1.5" fill="#3a3a3a"/>
<rect x="196" y="96" width="8" height="8" rx="1.5" fill="#3a3a3a"/>
<rect x="216" y="96" width="8" height="8" rx="1.5" fill="#3a3a3a"/>
<rect x="236" y="96" width="8" height="8" rx="1.5" fill="#3a3a3a"/>
<rect x="256" y="96" width="8" height="8" rx="1.5" fill="#3a3a3a"/>
<rect x="276" y="96" width="8" height="8" rx="1.5" fill="#3a3a3a"/>
<rect x="296" y="96" width="8" height="8" rx="1.5" fill="#3a3a3a"/>
<rect x="316" y="96" width="8" height="8" rx="1.5" fill="#3a3a3a"/>
<rect x="336" y="96" width="8" height="8" rx="1.5" fill="#3a3a3a"/>
<rect x="356" y="96" width="8" height="8" rx="1.5" fill="#3a3a3a"/>
<rect x="376" y="96" width="8" height="8" rx="1.5" fill="#3a3a3a"/>
<rect x="396" y="96" width="8" height="8" rx="1.5" fill="#3a3a3a"/>
<rect x="416" y="96" width="8" height="8" rx="1.5" fill="#3a3a3a"/>
<rect x="436" y="96" width="8" height="8" rx="1.5" fill="#3a3a3a"/>
<rect x="456" y="96" width="8" height="8" rx="1.5" fill="#3a3a3a"/>
<text x="486" y="104" font-size="10" fill="#999" text-anchor="middle">a</text>
<rect x="36" y="116" width="8" height="8" rx="1.5" fill="#3a3a3a"/>
<rect x="56" y="116" width="8" height="8" rx="1.5" fill="#3a3a3a"/>
<rect x="76" y="116" width="8" height="8" rx="1.5" fill="#3a3a3a"/>
<rect x="96" y="116" width="8" height="8" rx="1.5" fill="#3a3a3a"/>
<rect x="116" y="116" width="8" height="8" rx="1.5" fill="#3a3a3a"/>
<rect x="136" y="116" width="8" height="8" rx="1.5" fill="#3a3a3a"/>
<rect x="156" y="116" width="8" height="8" rx="1.5" fill="#3a3a3a"/>
<rect x="176" y="116" width="8" height="8" rx="1.5" fill="#3a3a3a"/>
<rect x="196" y="116" width="8" height="8" rx="1.5" fill="#3a3a3a"/>
<rect x="216" y="116" width="8" height="8" rx="1.5" fill="#3a3a3a"/>
<rect x="236" y="116" width="8" height="8" rx="1.5" fill="#3a3a3a"/>
<rect x="256" y="116" width="8" height="8" rx="1.5" fill="#3a3a3a"/>
<rect x="276" y="116" width="8" height="8" rx="1.5" fill="#3a3a3a"/>
<rect x="296" y="116" width="8" height="8" rx="1.5" fill="#3a3a3a"/>
<rect x="316" y="116" width="8" height="8" rx="1.5" fill="#3a3a3a"/>
<rect x="336" y="116" width="8" height="8" rx="1.5" fill="#3a3a3a"/>
<rect x="356" y="116" width="8" height="8" rx="1.5" fill="#3a3a3a"/>
<rect x="376" y="116" width="8" height="8" rx="1.5" fill="#3a3a3a"/>
<rect x="396" y="116" width="8" height="8" rx="1.5" fill="#3a3a3a"/>
<rect x="416" y="116" width="8" height="8" rx="1.5" fill="#3a3a3a"/>
<rect x="436" y="116" width="8" height="8" rx="1.5" fill="#3a3a3a"/>
<rect x="456" y="116" width="8" height="8" rx="1.5" fill="#3a3a3a"/>
<text x="486" y="124" font-size="10" fill="#999" text-anchor="middle">b</text>
<rect x="36" y="136" width="8" height="8" rx="1.5" fill="#3a3a3a"/>
<rect x="56" y="136" width="8" height="8" rx="1.5" fill="#3a3a3a"/>
<rect x="76" y="136" width="8" height="8" rx="1.5" fill="#3a3a3a"/>
<rect x="96" y="136" width="8" height="8" rx="1.5" fill="#3a3a3a"/>
<rect x="116" y="136" width="8" height="8" rx="1.5" fill="#3a3a3a"/>
<rect x="136" y="136" width="8" height="8" rx="1.5" fill="#3a3a3a"/>
<rect x="156" y="136" width="8" height="8" rx="1.5" fill="#3a3a3a"/>
<rect x="176" y="136" width="8" height="8" rx="1.5" fill="#3a3a3a"/>
<rect x="196" y="136" width="8" height="8" rx="1.5" fill="#3a3a3a"/>
<rect x="216" y="136" width="8" height="8" rx="1.5" fill="#3a3a3a"/>
<rect x="236" y="136" width="8" height="8" rx="1.5" fill="#3a3a3a"/>
<rect x="256" y="136" width="8" height="8" rx="1.5" fill="#3a3a3a"/>
<rect x="276" y="136" width="8" height="8" rx="1.5" fill="#3a3a3a"/>
<rect x="296" y="136" width="8" height="8" rx="1.5" fill="#3a3a3a"/>
<rect x="316" y="136" width="8" height="8" rx="1.5" fill="#3a3a3a"/>
<rect x="336" y="136" width="8" height="8" rx="1.5" fill="#3a3a3a"/>
<rect x="356" y="136" width="8" height="8" rx="1.5" fill="#3a3a3a"/>
<rect x="376" y="136" width="8" height="8" rx="1.5" fill="#3a3a3a"/>
<rect x="396" y="136" width="8" height="8" rx="1.5" fill="#3a3a3a"/>
<rect x="416" y="136" width="8" height="8" rx="1.5" fill="#3a3a3a"/>
<rect x="436" y="136" width="8" height="8" rx="1.5" fill="#3a3a3a"/>
<rect x="456" y="136" width="8" height="8" rx="1.5" fill="#3a3a3a"/>
<text x="486" y="144" font-size="10" fill="#999" text-anchor="middle">c</text>
<rect x="36" y="156" width="8" height="8" rx="1.5" fill="#3a3a3a"/>
<rect x="56" y="156" width="8" height="8" rx="1.5" fill="#3a3a3a"/>
<rect x="76" y="156" width="8" height="8" rx="1.5" fill="#3a3a3a"/>
<rect x="96" y="156" width="8" height="8" rx="1.5" fill="#3a3a3a"/>
<rect x="116" y="156" width="8" height="8" rx="1.5" fill="#3a3a3a"/>
<rect x="136" y="156" width="8" height="8" rx="1.5" fill="#3a3a3a"/>
<rect x="156" y="156" width="8" height="8" rx="1.5" fill="#3a3a3a"/>
<rect x="176" y="156" width="8" height="8" rx="1.5" fill="#3a3a3a"/>
<rect x="196" y="156" width="8" height="8" rx="1.5" fill="#3a3a3a"/>
<rect x="216" y="156" width="8" height="8" rx="1.5" fill="#3a3a3a"/>
<rect x="236" y="156" width="8" height="8" rx="1.5" fill="#3a3a3a"/>
<rect x="256" y="156" width="8" height="8" rx="1.5" fill="#3a3a3a"/>
<rect x="276" y="156" width="8" height="8" rx="1.5" fill="#3a3a3a"/>
<rect x="296" y="156" width="8" height="8" rx="1.5" fill="#3a3a3a"/>
<rect x="316" y="156" width="8" height="8" rx="1.5" fill="#3a3a3a"/>
<rect x="336" y="156" width="8" height="8" rx="1.5" fill="#3a3a3a"/>
<rect x="356" y="156" width="8" height="8" rx="1.5" fill="#3a3a3a"/>
<rect x="376" y="156" width="8" height="8" rx="1.5" fill="#3a3a3a"/>
<rect x="396" y="156" width="8" height="8" rx="1.5" fill="#3a3a3a"/>
<rect x="416" y="156" width="8" height="8" rx="1.5" fill="#3a3a3a"/>
<rect x="436" y="156" width="8" height="8" rx="1.5" fill="#3a3a3a"/>
<rect x="456" y="156" width="8" height="8" rx="1.5" fill="#3a3a3a"/>
<text x="486" y="164" font-size="10" fill="#999" text-anchor="middle">d</text>
<rect x="36" y="176" width="8" height="8" rx="1.5" fill="#3a3a3a"/>
<rect x="56" y="176" width="8" height="8" rx="1.5" fill="#3a3a3a"/>
<rect x="76" y="176" width="8" height="8" rx="1.5" fill="#3a3a3a"/>
<rect x="96" y="176" width="8" height="8" rx="1.5" fill="#3a3a3a"/>
<rect x="116" y="176" width="8" height="8" rx="1.5" fill="#3a3a3a"/>
<rect x="136" y="176" width="8" height="8" rx="1.5" fill="#3a3a3a"/>
<rect x="156" y="176" width="8" height="8" rx="1.5" fill="#3a3a3a"/>
<rect x="176" y="176" width="8" height="8" rx="1.5" fill="#3a3a3a"/>
<rect x="196" y="176" width="8" height="8" rx="1.5" fill="#3a3a3a"/>
<rect x="216" y="176" width="8" height="8" rx="1.5" fill="#3a3a3a"/>
<rect x="236" y="176" width="8" height="8" rx="1.5" fill="#3a3a3a"/>
<rect x="256" y="176" width="8" height="8" rx="1.5" fill="#3a3a3a"/>
<rect x="276" y="176" width="8" height="8" rx="1.5" fill="#3a3a3a"/>
<rect x="296" y="176" width="8" height="8" rx="1.5" fill="#3a3a3a"/>
<rect x="316" y="176" width="8" height="8" rx="1.5" fill="#3a3a3a"/>
<rect x="336" y="176" width="8" height="8" rx="1.5" fill="#3a3a3a"/>
<rect x="356" y="176" width="8" height="8" rx="1.5" fill="#3a3a3a"/>
<rect x="376" y="176" width="8" height="8" rx="1.5" fill="#3a3a3a"/>
<rect x="396" y="176" width="8" height="8" rx="1.5" fill="#3a3a3a"/>
<rect x="416" y="176" width="8" height="8" rx="1.5" fill="#3a3a3a"/>
<rect x="436" y="176" width="8" height="8" rx="1.5" fill="#3a3a3a"/>
<rect x="456" y="176" width="8" height="8" rx="1.5" fill="#3a3a3a"/>
<text x="486" y="184" font-size="10" fill="#999" text-anchor="middle">e</text>
<rect x="36" y="236" width="8" height="8" rx="1.5" fill="#3a3a3a"/>
<rect x="56" y="236" width="8" height="8" rx="1.5" fill="#3a3a3a"/>
<rect x="76" y="236" width="8" height="8" rx="1.5" fill="#3a3a3a"/>
<rect x="96" y="236" width="8" height="8" rx="1.5" fill="#3a3a3a"/>
<rect x="116" y="236" width="8" height="8" rx="1.5" fill="#3a3a3a"/>
<rect x="136" y="236" width="8" height="8" rx="1.5" fill="#3a3a3a"/>
<rect x="156" y="236" width="8" height="8" rx="1.5" fill="#3a3a3a"/>
<rect x="176" y="236" width="8" height="8" rx="1.5" fill="#3a3a3a"/>
<rect x="196" y="236" width="8" height="8" rx="1.5" fill="#3a3a3a"/>
<rect x="216" y="236" width="8" height="8" rx="1.5" fill="#3a3a3a"/>
<rect x="236" y="236" width="8" height="8" rx="1.5" fill="#3a3a3a"/>
<rect x="256" y="236" width="8" height="8" rx="1.5" fill="#3a3a3a"/>
<rect x="276" y="236" width="8" height="8" rx="1.5" fill="#3a3a3a"/>
<rect x="296" y="236" width="8" height="8" rx="1.5" fill="#3a3a3a"/>
<rect x="316" y="236" width="8" height="8" rx="1.5" fill="#3a3a3a"/>
<rect x="336" y="236" width="8" height="8" rx="1.5" fill="#3a3a3a"/>
<rect x="356" y="236" width="8" height="8" rx="1.5" fill="#3a3a3a"/>
<rect x="376" y="236" width="8" height="8" rx="1.5" fill="#3a3a3a"/>
<rect x="396" y="236" width="8" height="8" rx="1.5" fill="#3a3a3a"/>
<rect x="416" y="236" width="8" height="8" rx="1.5" fill="#3a3a3a"/>
<rect x="436" y="236" width="8" height="8" rx="1.5" fill="#3a3a3a"/>
<rect x="456" y="236" width="8" height="8" rx="1.5" fill="#3a3a3a"/>
<text x="486" y="244" font-size="10" fill="#999" text-anchor="middle">f</text>
<rect x="36" y="256" width="8" height="8" rx="1.5" fill="#3a3a3a"/>
<rect x="56" y="256" width="8" height="8" rx="1.5" fill="#3a3a3a"/>
<rect x="76" y="256" width="8" height="8" rx="1.5" fill="#3a3a3a"/>
<rect x="96" y="256" width="8" height="8" rx="1.5" fill="#3a3a3a"/>
<rect x="116" y="256" width="8" height="8" rx="1.5" fill="#3a3a3a"/>
<rect x="136" y="256" width="8" height="8" rx="1.5" fill="#3a3a3a"/>
<rect x="156" y="256" width="8" height="8" rx="1.5" fill="#3a3a3a"/>
<rect x="176" y="256" width="8" height="8" rx="1.5" fill="#3a3a3a"/>
<rect x="196" y="256" width="8" height="8" rx="1.5" fill="#3a3a3a"/>
<rect x="216" y="256" width="8" height="8" rx="1.5" fill="#3a3a3a"/>
<rect x="236" y="256" width="8" height="8" rx="1.5" fill="#3a3a3a"/>
<rect x="256" y="256" width="8" height="8" rx="1.5" fill="#3a3a3a"/>
<rect x="276" y="256" width="8" height="8" rx="1.5" fill="#3a3a3a"/>
<rect x="296" y="256" width="8" height="8" rx="1.5" fill="#3a3a3a"/>
<rect x="316" y="256" width="8" height="8" rx="1.5" fill="#3a3a3a"/>
<rect x="336" y="256" width="8" height="8" rx="1.5" fill="#3a3a3a"/>
<rect x="356" y="256" width="8" height="8" rx="1.5" fill="#3a3a3a"/>
<rect x="376" y="256" width="8" height="8" rx="1.5" fill="#3a3a3a"/>
<rect x="396" y="256" width="8" height="8" rx="1.5" fill="#3a3a3a"/>
<rect x="416" y="256" width="8" height="8" rx="1.5" fill="#3a3a3a"/>
<rect x="436" y="256" width="8" height="8" rx="1.5" fill="#3a3a3a"/>
<rect x="456" y="256" width="8" height="8" rx="1.5" fill="#3a3a3a"/>
<text x="486" y="264" font-size="10" fill="#999" text-anchor="middle">g</text>
<rect x="36" y="276" width="8" height="8" rx="1.5" fill="#3a3a3a"/>
<rect x="56" y="276" width="8" height="8" rx="1.5" fill="#3a3a3a"/>
<rect x="76" y="276" width="8" height="8" rx="1.5" fill="#3a3a3a"/>
<rect x="96" y="276" width="8" height="8" rx="1.5" fill="#3a3a3a"/>
<rect x="116" y="276" width="8" height="8" rx="1.5" fill="#3a3a3a"/>
<rect x="136" y="276" width="8" height="8" rx="1.5" fill="#3a3a3a"/>
<rect x="156" y="276" width="8" height="8" rx="1.5" fill="#3a3a3a"/>
<rect x="176" y="276" width="8" height="8" rx="1.5" fill="#3a3a3a"/>
<rect x="196" y="276" width="8" height="8" rx="1.5" fill="#3a3a3a"/>
<rect x="216" y="276" width="8" height="8" rx="1.5" fill="#3a3a3a"/>
<rect x="236" y="276" width="8" height="8" rx="1.5" fill="#3a3a3a"/>
<rect x="256" y="276" width="8" height="8" rx="1.5" fill="#3a3a3a"/>
<rect x="276" y="276" width="8" height="8" rx="1.5" fill="#3a3a3a"/>
<rect x="296" y="276" width="8" height="8" rx="1.5" fill="#3a3a3a"/>
<rect x="316" y="276" width="8" height="8" rx="1.5" fill="#3a3a3a"/>
<rect x="336" y="276" width="8" height="8" rx="1.5" fill="#3a3a3a"/>
<rect x="356" y="276" width="8" height="8" rx="1.5" fill="#3a3a3a"/>
<rect x="376" y="276" width="8" height="8" rx="1.5" fill="#3a3a3a"/>
<rect x="396" y="276" width="8" height="8" rx="1.5" fill="#3a3a3a"/>
<rect x="416" y="276" width="8" height="8" rx="1.5" fill="#3a3a3a"/>
<rect x="436" y="276" width="8" height="8" rx="1.5" fill="#3a3a3a"/>
<rect x="456" y="276" width="8" height="8" rx="1.5" fill="#3a3a3a"/>
<text x="486" y="284" font-size="10" fill="#999" text-anchor="middle">h</text>
<rect x="36" y="296" width="8" height="8" rx="1.5" fill="#3a3a3a"/>
<rect x="56" y="296" width="8" height="8" rx="1.5" fill="#3a3a3a"/>
<rect x="76" y="296" width="8" height="8" rx="1.5" fill="#3a3a3a"/>
<rect x="96" y="296" width="8" height="8" rx="1.5" fill="#3a3a3a"/>
<rect x="116" y="296" width="8" height="8" rx="1.5" fill="#3a3a3a"/>
<rect x="136" y="296" width="8" height="8" rx="1.5" fill="#3a3a3a"/>
<rect x="156" y="296" width="8" height="8" rx="1.5" fill="#3a3a3a"/>
<rect x="176" y="296" width="8" height="8" rx="1.5" fill="#3a3a3a"/>
<rect x="196" y="296" width="8" height="8" rx="1.5" fill="#3a3a3a"/>
<rect x="216" y="296" width="8" height="8" rx="1.5" fill="#3a3a3a"/>
<rect x="236" y="296" width="8" height="8" rx="1.5" fill="#3a3a3a"/>
<rect x="256" y="296" width="8" height="8" rx="1.5" fill="#3a3a3a"/>
<rect x="276" y="296" width="8" height="8" rx="1.5" fill="#3a3a3a"/>
<rect x="296" y="296" width="8" height="8" rx="1.5" fill="#3a3a3a"/>
<rect x="316" y="296" width="8" height="8" rx="1.5" fill="#3a3a3a"/>
<rect x="336" y="296" width="8" height="8" rx="1.5" fill="#3a3a3a"/>
<rect x="356" y="296" width="8" height="8" rx="1.5" fill="#3a3a3a"/>
<rect x="376" y="296" width="8" height="8" rx="1.5" fill="#3a3a3a"/>
<rect x="396" y="296" width="8" height="8" rx="1.5" fill="#3a3a3a"/>
<rect x="416" y="296" width="8" height="8" rx="1.5" fill="#3a3a3a"/>
<rect x="436" y="296" width="8" height="8" rx="1.5" fill="#3a3a3a"/>
<rect x="456" y="296" width="8" height="8" rx="1.5" fill="#3a3a3a"/>
<text x="486" y="304" font-size="10" fill="#999" text-anchor="middle">i</text>
<rect x="36" y="316" width="8" height="8" rx="1.5" fill="#3a3a3a"/>
<rect x="56" y="316" width="8" height="8" rx="1.5" fill="#3a3a3a"/>
<rect x="76" y="316" width="8" height="8" rx="1.5" fill="#3a3a3a"/>
<rect x="96" y="316" width="8" height="8" rx="1.5" fill="#3a3a3a"/>
<rect x="116" y="316" width="8" height="8" rx="1.5" fill="#3a3a3a"/>
<rect x="136" y="316" width="8" height="8" rx="1.5" fill="#3a3a3a"/>
<rect x="156" y="316" width="8" height="8" rx="1.5" fill="#3a3a3a"/>
<rect x="176" y="316" width="8" height="8" rx="1.5" fill="#3a3a3a"/>
<rect x="196" y="316" width="8" height="8" rx="1.5" fill="#3a3a3a"/>
<rect x="216" y="316" width="8" height="8" rx="1.5" fill="#3a3a3a"/>
<rect x="236" y="316" width="8" height="8" rx="1.5" fill="#3a3a3a"/>
<rect x="256" y="316" width="8" height="8" rx="1.5" fill="#3a3a3a"/>
<rect x="276" y="316" width="8" height="8" rx="1.5" fill="#3a3a3a"/>
<rect x="296" y="316" width="8" height="8" rx="1.5" fill="#3a3a3a"/>
<rect x="316" y="316" width="8" height="8" rx="1.5" fill="#3a3a3a"/>
<rect x="336" y="316" width="8" height="8" rx="1.5" fill="#3a3a3a"/>
<rect x="356" y="316" width="8" height="8" rx="1.5" fill="#3a3a3a"/>
<rect x="376" y="316" width="8" height="8" rx="1.5" fill="#3a3a3a"/>
<rect x="396" y="316" width="8" height="8" rx="1.5" fill="#3a3a3a"/>
<rect x="416" y="316" width="8" height="8" rx="1.5" fill="#3a3a3a"/>
<rect x="436" y="316" width="8" height="8" rx="1.5" fill="#3a3a3a"/>
<rect x="456" y="316" width="8" height="8" rx="1.5" fill="#3a3a3a"/>
<text x="486" y="324" font-size="10" fill="#999" text-anchor="middle">j</text>
<text x="120" y="86" font-size="10" fill="#999" text-anchor="middle">5</text>
<text x="220" y="86" font-size="10" fill="#999" text-anchor="middle">10</text>
<text x="320" y="86" font-size="10" fill="#999" text-anchor="middle">15</text>
<text x="420" y="86" font-size="10" fill="#999" text-anchor="middle">20</text>
<rect x="14" y="14" width="66" height="392" rx="4" fill="#1f5fa8" stroke="#123c6b" stroke-width="2"/>
<rect x="22" y="160" width="50" height="40" rx="4" fill="#222"/>
<circle cx="47" cy="180" r="9" fill="#555"/>
<rect x="28" y="240" width="38" height="16" rx="3" fill="#eee"/>
<rect x="30" y="243" width="14" height="10" rx="2" fill="#444"/>
<text x="47" y="290" font-size="10" font-weight="700" fill="#fff" text-anchor="middle">POWER</text>
<text x="47" y="303" font-size="10" font-weight="700" fill="#fff" text-anchor="middle">MODULE</text>
<rect x="30" y="72" width="34" height="14" rx="2" fill="#ffd54f"/>
<text x="47" y="83" font-size="10" font-weight="700" fill="#222" text-anchor="middle">5V</text>
<rect x="30" y="330" width="34" height="14" rx="2" fill="#ffd54f"/>
<text x="47" y="341" font-size="10" font-weight="700" fill="#222" text-anchor="middle">5V</text>
<text x="47" y="135" font-size="9" fill="#d6e6ff" text-anchor="middle">9V in</text>
<path d="M200 320 C200 350 160 340 160 370" fill="none" stroke="#222" stroke-width="7" stroke-linecap="round" opacity=".25"/>
<path d="M200 320 C200 350 160 340 160 370" fill="none" stroke="#2b2b2b" stroke-width="5" stroke-linecap="round"/>
<circle cx="200" cy="320" r="5" fill="#2b2b2b" stroke="#222" stroke-width="1"/>
<circle cx="160" cy="370" r="5" fill="#2b2b2b" stroke="#222" stroke-width="1"/>
<line x1="220" x2="300" y1="280" y2="280" stroke="#9a9a9a" stroke-width="3"/>
<rect x="240.0" y="272" width="40" height="16" rx="7" fill="#e8c98f" stroke="#a88a52"/>
<rect x="248.0" y="272" width="4" height="16" fill="#d32f2f"/>
<rect x="255.0" y="272" width="4" height="16" fill="#d32f2f"/>
<rect x="262.0" y="272" width="4" height="16" fill="#6d3b1f"/>
<rect x="272.0" y="272" width="4" height="16" fill="#c9a227"/>
<circle cx="220" cy="280" r="5" fill="#9a9a9a" stroke="#222" stroke-width="1"/>
<circle cx="300" cy="280" r="5" fill="#9a9a9a" stroke="#222" stroke-width="1"/>
<rect x="241.0" y="291" width="38" height="15" rx="7" fill="#fff" stroke="#a88a52"/>
<text x="260.0" y="302" font-size="10" font-weight="700" fill="#5a4a2a" text-anchor="middle">220Ω</text>
<path d="M200 260 V232" stroke="#9a9a9a" stroke-width="3"/>
<path d="M220 260 V246 l-3 -6 V232" fill="none" stroke="#9a9a9a" stroke-width="3"/>
<path d="M197.0 232 V208 a13 13 0 0 1 26 0 V232 Z" fill="#ff4d4d" stroke="#a31515" stroke-width="1.5" opacity=".95"/>
<rect x="194.0" y="230" width="32" height="5" rx="1" fill="#ff4d4d" stroke="#a31515" stroke-width="1.5"/>
<path d="M204.0 190 l-4 -12 M216.0 190 l4 -12" stroke="#e0a800" stroke-width="2"/>
<circle cx="200" cy="260" r="5" fill="#9a9a9a" stroke="#222" stroke-width="1"/>
<circle cx="220" cy="260" r="5" fill="#9a9a9a" stroke="#222" stroke-width="1"/>
<text x="190" y="212" font-size="10" fill="#333" text-anchor="end">short leg (–)</text>
<text x="230" y="212" font-size="10" fill="#333">long leg (+)</text>
<rect x="558" y="193" width="40" height="14" fill="#c87533"/>
<rect x="558" y="253" width="40" height="14" fill="#c87533"/>
<rect x="590" y="170" width="90" height="120" rx="4" fill="#e9e0c8" stroke="#b8ab88"/>
<rect x="600" y="182" width="70" height="96" rx="3" fill="#1d1d1d"/>
<text x="635" y="234" font-size="11" font-weight="700" fill="#fff" text-anchor="middle" transform="rotate(-90 635 230)">VELOSTAT</text>
<text x="635" y="310" font-size="11" fill="#444" text-anchor="middle">your pressure sensor</text>
<path d="M400 30 C460 30 494 200 544 200" fill="none" stroke="#222" stroke-width="7" stroke-linecap="round" opacity=".25"/>
<path d="M400 30 C460 30 494 200 544 200" fill="none" stroke="#d32f2f" stroke-width="5" stroke-linecap="round"/>
<circle cx="400" cy="30" r="5" fill="#d32f2f" stroke="#222" stroke-width="1"/>
<path d="M538 192 L556 195 L556 205 L538 208 Z" fill="#d32f2f" stroke="#222" stroke-width="1"/>
<path d="M300 240 C300 210 484 260 544 260" fill="none" stroke="#222" stroke-width="7" stroke-linecap="round" opacity=".25"/>
<path d="M300 240 C300 210 484 260 544 260" fill="none" stroke="#2f6fd6" stroke-width="5" stroke-linecap="round"/>
<circle cx="300" cy="240" r="5" fill="#2f6fd6" stroke="#222" stroke-width="1"/>
<path d="M538 252 L556 255 L556 265 L538 268 Z" fill="#2f6fd6" stroke="#222" stroke-width="1"/>
<text x="20" y="440" font-size="12.5" font-weight="400" fill="#222">+ rail (5V) → red wire → Velostat → blue wire → 220Ω resistor → LED long leg → LED short leg → black wire → – rail</text>
<text x="20" y="462" font-size="12.5" font-weight="400" fill="#b23a2f">Long-leg row: the LED's long leg + one leg of the 220Ω resistor</text>
<text x="20" y="481" font-size="12.5" font-weight="400" fill="#333">Short-leg row: the LED's short leg + the black wire to the – rail</text>
<text x="20" y="500" font-size="12.5" font-weight="400" fill="#1f4fbf">Free row: the resistor's other leg + the blue wire to the sensor</text>
</svg>